<mxfile host="app.diagrams.net" modified="2021-11-16T12:48:56.245Z" agent="5.0 (Macintosh; Intel Mac OS X 10_15_7) AppleWebKit/605.1.15 (KHTML, like Gecko) Version/15.1 Safari/605.1.15" etag="mzOOg7AEZHmSBpWnc9g1" version="15.7.4" type="github">
  <diagram id="8ILNKQSfTaw1d-4dPCgj" name="Page-1">
    <mxGraphModel dx="1102" dy="709" grid="1" gridSize="10" guides="1" tooltips="1" connect="1" arrows="1" fold="1" page="1" pageScale="1" pageWidth="827" pageHeight="1169" math="0" shadow="0">
      <root>
        <mxCell id="0" />
        <mxCell id="1" parent="0" />
        <mxCell id="KtpjlornzU26dVNA0hiR-1" value="&lt;p style=&quot;margin-top: 0pt ; margin-bottom: 0pt ; margin-left: 0in ; text-align: left ; direction: ltr ; unicode-bidi: embed ; word-break: normal&quot;&gt;&lt;font face=&quot;Lucida Console&quot;&gt;&lt;span style=&quot;font-size: 18pt;&quot;&gt;&lt;font color=&quot;#006600&quot;&gt;FlightCo&lt;/font&gt;&amp;nbsp;&lt;/span&gt;&lt;span style=&quot;font-size: 18pt;&quot;&gt;&lt;font color=&quot;#003366&quot;&gt;International&lt;/font&gt;&lt;/span&gt;&lt;/font&gt;&lt;span style=&quot;font-size: 18pt; color: white;&quot;&gt;&lt;/span&gt;&lt;/p&gt;" style="text;html=1;strokeColor=none;fillColor=none;align=center;verticalAlign=middle;whiteSpace=wrap;rounded=0;fontFamily=Dancing Script;fontStyle=1;fontSource=https%3A%2F%2Ffonts.googleapis.com%2Fcss%3Ffamily%3DDancing%2BScript;" vertex="1" parent="1">
          <mxGeometry x="260" y="110" width="250" height="30" as="geometry" />
        </mxCell>
      </root>
    </mxGraphModel>
  </diagram>
</mxfile>
